<svg width="252" height="49" viewBox="0 0 252 49" fill="none" xmlns="http://www.w3.org/2000/svg">
<path d="M29.6685 47.5405H18.8031V30.6967L0.670288 0.377991H12.1708L24.7297 21.3318L37.2182 0.377991H47.8719L29.6685 30.8316V47.5405ZM53.6226 18.3671C51.694 18.3671 50.0711 17.7382 48.7543 16.4808C47.4372 15.223 46.7786 13.651 46.7786 11.7644C46.7786 9.83314 47.4372 8.28334 48.7543 7.11557C50.0711 5.90282 51.694 5.29644 53.6226 5.29644C55.5511 5.29644 57.1738 5.90282 58.4909 7.11557C59.8078 8.28334 60.4663 9.83314 60.4663 11.7644C60.4663 13.651 59.8078 15.223 58.4909 16.4808C57.1738 17.7382 55.5511 18.3671 53.6226 18.3671ZM53.6226 42.5549C51.694 42.5549 50.0711 41.926 48.7543 40.6683C47.4372 39.4106 46.7786 37.8385 46.7786 35.952C46.7786 34.0207 47.4372 32.4711 48.7543 31.3031C50.0711 30.0903 51.694 29.484 53.6226 29.484C55.5511 29.484 57.1738 30.0903 58.4909 31.3031C59.8078 32.4711 60.4663 34.0207 60.4663 35.952C60.4663 37.8385 59.8078 39.4106 58.4909 40.6683C57.1738 41.926 55.5511 42.5549 53.6226 42.5549ZM122.902 47.5405H111.26L100.959 15.6048L90.3052 47.5405H78.6635L63.2825 0.377991H74.5715L85.1548 33.5265L96.1615 0.377991H106.251L116.975 33.7961L127.911 0.377991H138.283L122.902 47.5405ZM153.18 10.7538C158.777 10.7538 163.058 12.1012 166.021 14.7963C169.031 17.4464 170.537 21.4664 170.537 26.8563V47.5405H160.729V43.0263C158.707 46.3952 155.038 48.0795 149.723 48.0795C146.947 48.0795 144.549 47.608 142.526 46.6646C140.504 45.7214 138.951 44.4187 137.869 42.757C136.787 41.095 136.247 39.2084 136.247 37.0975C136.247 33.7286 137.517 31.0785 140.057 29.1472C142.597 27.2159 146.501 26.25 151.769 26.25H160.024C160.024 24.633 159.742 23.3755 159.177 22.4771C157.907 20.2312 155.438 19.1084 151.769 19.1084C149.84 19.1084 147.935 19.4227 146.054 20.0516C144.219 20.6354 142.644 21.4439 141.327 22.4771L137.587 15.1331C139.516 13.7407 141.867 12.6629 144.643 11.8991C147.418 11.1356 150.264 10.7538 153.18 10.7538ZM152.333 41.0051C154.168 41.0051 155.767 40.6008 157.131 39.7923C158.495 38.9391 159.459 37.7039 160.024 36.0869V32.3812H152.898C148.617 32.3812 146.477 33.7961 146.477 36.6258C146.477 37.9732 146.995 39.0513 148.029 39.8598C149.064 40.6233 150.499 41.0051 152.333 41.0051ZM197.686 47.5405H186.891L171.722 11.2927H182.517L192.536 35.952L202.837 11.2927H212.926L197.686 47.5405ZM251.066 29.5514C251.066 29.6861 250.995 30.6295 250.854 32.3812H223.62C224.137 34.627 225.29 36.4012 227.077 37.7039C228.911 39.0063 231.193 39.6577 233.921 39.6577C235.803 39.6577 237.449 39.3881 238.86 38.8492C240.318 38.2653 241.682 37.3668 242.952 36.1541L248.526 42.2178C245.092 46.1257 240.13 48.0795 233.639 48.0795C229.546 48.0795 225.925 47.2934 222.773 45.7214C219.669 44.1044 217.27 41.881 215.576 39.0513C213.883 36.2215 213.036 33.01 213.036 29.4168C213.036 25.8682 213.86 22.6792 215.506 19.8494C217.199 16.9747 219.504 14.7513 222.42 13.1793C225.384 11.5623 228.676 10.7538 232.298 10.7538C235.826 10.7538 239.001 11.5173 241.823 13.0446C244.692 14.5717 246.95 16.7726 248.596 19.6473C250.243 22.4771 251.066 25.7785 251.066 29.5514ZM232.369 18.7041C230.017 18.7041 228.018 19.3777 226.371 20.7254C224.772 22.0728 223.808 23.9144 223.479 26.25H241.188C240.812 23.9594 239.824 22.1403 238.225 20.7926C236.672 19.4002 234.721 18.7041 232.369 18.7041Z" fill="white"/>
</svg>
