<svg width="48" height="48" viewBox="0 0 48 48" fill="none" xmlns="http://www.w3.org/2000/svg">
<g filter="url(#filter0_d_595_437)">
<path d="M24 4C16 4 10 10 10 18C10 27 24 40 24 40C24 40 38 27 38 18C38 10 32 4 24 4Z" fill="url(#paint0_linear_595_437)"/>
<path d="M24 4.5C31.7239 4.5 37.5 10.2761 37.5 18C37.5 20.1315 36.6669 22.5464 35.3701 25.001C34.0776 27.4474 32.3483 29.8889 30.6094 32.0625C28.8719 34.2344 27.1333 36.1287 25.8281 37.4805C25.176 38.1559 24.6326 38.6955 24.2529 39.0654C24.1586 39.1573 24.0732 39.2381 24 39.3086C23.9268 39.2381 23.8414 39.1573 23.7471 39.0654C23.3674 38.6955 22.824 38.1559 22.1719 37.4805C20.8667 36.1287 19.1281 34.2344 17.3906 32.0625C15.6517 29.8889 13.9224 27.4474 12.6299 25.001C11.3331 22.5464 10.5 20.1315 10.5 18C10.5 10.2761 16.2761 4.5 24 4.5Z" stroke="white"/>
</g>
<path d="M28.9999 17.3333C28.9999 16.694 28.5466 16.1593 27.9459 16.0307C28.1859 15.63 28.3333 15.1667 28.3333 14.6667C28.3333 13.196 27.1373 12 25.6666 12C24.6559 12 23.7853 12.5713 23.3333 13.4027C22.8813 12.5713 22.0106 12 20.9999 12C19.5293 12 18.3333 13.196 18.3333 14.6667C18.3333 15.268 18.5413 15.8173 18.8779 16.264C18.7096 16.387 18.5726 16.5479 18.478 16.7337C18.3834 16.9194 18.3338 17.1249 18.3333 17.3333V22.6667C18.3333 23.402 18.9313 24 19.6666 24H27.6666C28.4019 24 28.9999 23.402 28.9999 22.6667V20.9087L31.6666 22.242V17.5753L28.9999 18.9087V17.3333ZM25.6666 13.3333C26.4019 13.3333 26.9999 13.9313 26.9999 14.6667C26.9999 15.402 26.4019 16 25.6666 16C24.9313 16 24.3333 15.402 24.3333 14.6667C24.3333 13.9313 24.9313 13.3333 25.6666 13.3333ZM20.9999 13.3333C21.7353 13.3333 22.3333 13.9313 22.3333 14.6667C22.3333 15.402 21.7353 16 20.9999 16C20.2646 16 19.6666 15.402 19.6666 14.6667C19.6666 13.9313 20.2646 13.3333 20.9999 13.3333Z" fill="white"/>
<defs>
<filter id="filter0_d_595_437" x="6" y="4" width="36" height="44" filterUnits="userSpaceOnUse" color-interpolation-filters="sRGB">
<feFlood flood-opacity="0" result="BackgroundImageFix"/>
<feColorMatrix in="SourceAlpha" type="matrix" values="0 0 0 0 0 0 0 0 0 0 0 0 0 0 0 0 0 0 127 0" result="hardAlpha"/>
<feOffset dy="4"/>
<feGaussianBlur stdDeviation="2"/>
<feComposite in2="hardAlpha" operator="out"/>
<feColorMatrix type="matrix" values="0 0 0 0 0 0 0 0 0 0 0 0 0 0 0 0 0 0 0.25 0"/>
<feBlend mode="normal" in2="BackgroundImageFix" result="effect1_dropShadow_595_437"/>
<feBlend mode="normal" in="SourceGraphic" in2="effect1_dropShadow_595_437" result="shape"/>
</filter>
<linearGradient id="paint0_linear_595_437" x1="10" y1="4" x2="38" y2="4" gradientUnits="userSpaceOnUse">
<stop stop-color="#2EA2FF"/>
<stop offset="1" stop-color="#048FFF"/>
</linearGradient>
</defs>
</svg>
