<svg width="48" height="48" viewBox="0 0 48 48" fill="none" xmlns="http://www.w3.org/2000/svg">
<g filter="url(#filter0_d_595_432)">
<path d="M24 4C16 4 10 10 10 18C10 27 24 40 24 40C24 40 38 27 38 18C38 10 32 4 24 4Z" fill="url(#paint0_linear_595_432)"/>
<path d="M24 4.5C31.7239 4.5 37.5 10.2761 37.5 18C37.5 20.1315 36.6669 22.5464 35.3701 25.001C34.0776 27.4474 32.3483 29.8889 30.6094 32.0625C28.8719 34.2344 27.1333 36.1287 25.8281 37.4805C25.176 38.1559 24.6326 38.6955 24.2529 39.0654C24.1586 39.1573 24.0732 39.2381 24 39.3086C23.9268 39.2381 23.8414 39.1573 23.7471 39.0654C23.3674 38.6955 22.824 38.1559 22.1719 37.4805C20.8667 36.1287 19.1281 34.2344 17.3906 32.0625C15.6517 29.8889 13.9224 27.4474 12.6299 25.001C11.3331 22.5464 10.5 20.1315 10.5 18C10.5 10.2761 16.2761 4.5 24 4.5Z" stroke="white"/>
</g>
<path d="M28.6667 13.3333H28V12.6667C28 12.4899 27.9298 12.3203 27.8047 12.1953C27.6797 12.0702 27.5101 12 27.3333 12H19.3333C19.1565 12 18.987 12.0702 18.8619 12.1953C18.7369 12.3203 18.6667 12.4899 18.6667 12.6667V18.6667C18.6667 19.3739 18.9476 20.0522 19.4477 20.5523C19.9478 21.0524 20.6261 21.3333 21.3333 21.3333H25.3333C26.572 21.3333 27.6073 20.4807 27.9053 19.3333H28.6667C29.1971 19.3333 29.7058 19.1226 30.0809 18.7475C30.456 18.3725 30.6667 17.8638 30.6667 17.3333V15.3333C30.6667 14.8029 30.456 14.2942 30.0809 13.9191C29.7058 13.544 29.1971 13.3333 28.6667 13.3333ZM29.3333 17.3333C29.3333 17.5101 29.2631 17.6797 29.1381 17.8047C29.013 17.9298 28.8435 18 28.6667 18H28V14.6667H28.6667C28.8435 14.6667 29.013 14.7369 29.1381 14.8619C29.2631 14.987 29.3333 15.1565 29.3333 15.3333V17.3333ZM28 22.6667H18C18 23.7693 18.8973 24.6667 20 24.6667H27.3333C28.436 24.6667 29.3333 23.7693 29.3333 22.6667H28Z" fill="white"/>
<defs>
<filter id="filter0_d_595_432" x="6" y="4" width="36" height="44" filterUnits="userSpaceOnUse" color-interpolation-filters="sRGB">
<feFlood flood-opacity="0" result="BackgroundImageFix"/>
<feColorMatrix in="SourceAlpha" type="matrix" values="0 0 0 0 0 0 0 0 0 0 0 0 0 0 0 0 0 0 127 0" result="hardAlpha"/>
<feOffset dy="4"/>
<feGaussianBlur stdDeviation="2"/>
<feComposite in2="hardAlpha" operator="out"/>
<feColorMatrix type="matrix" values="0 0 0 0 0 0 0 0 0 0 0 0 0 0 0 0 0 0 0.25 0"/>
<feBlend mode="normal" in2="BackgroundImageFix" result="effect1_dropShadow_595_432"/>
<feBlend mode="normal" in="SourceGraphic" in2="effect1_dropShadow_595_432" result="shape"/>
</filter>
<linearGradient id="paint0_linear_595_432" x1="10" y1="4" x2="38" y2="4" gradientUnits="userSpaceOnUse">
<stop stop-color="#2EA2FF"/>
<stop offset="1" stop-color="#048FFF"/>
</linearGradient>
</defs>
</svg>
