<svg width="36" height="44" viewBox="0 0 36 44" fill="none" xmlns="http://www.w3.org/2000/svg">
<g filter="url(#filter0_d_1033_36)">
<path d="M18 0C10 0 4 6 4 14C4 23 18 36 18 36C18 36 32 23 32 14C32 6 26 0 18 0Z" fill="url(#paint0_linear_1033_36)"/>
<path d="M18 0.5C25.7239 0.5 31.5 6.27614 31.5 14C31.5 16.1315 30.6669 18.5464 29.3701 21.001C28.0776 23.4474 26.3483 25.8889 24.6094 28.0625C22.8719 30.2344 21.1333 32.1287 19.8281 33.4805C19.176 34.1559 18.6326 34.6955 18.2529 35.0654C18.1586 35.1573 18.0732 35.2381 18 35.3086C17.9268 35.2381 17.8414 35.1573 17.7471 35.0654C17.3674 34.6955 16.824 34.1559 16.1719 33.4805C14.8667 32.1287 13.1281 30.2344 11.3906 28.0625C9.65171 25.8889 7.92237 23.4474 6.62988 21.001C5.33313 18.5464 4.5 16.1315 4.5 14C4.5 6.27614 10.2761 0.5 18 0.5Z" stroke="white"/>
</g>
<path d="M12.6667 13.3333H16.6667C16.8435 13.3333 17.013 13.2631 17.1381 13.1381C17.2631 13.013 17.3333 12.8435 17.3333 12.6667V8.66667C17.3333 8.48986 17.2631 8.32029 17.1381 8.19526C17.013 8.07024 16.8435 8 16.6667 8H12.6667C12.4899 8 12.3203 8.07024 12.1953 8.19526C12.0702 8.32029 12 8.48986 12 8.66667V12.6667C12 12.8435 12.0702 13.013 12.1953 13.1381C12.3203 13.2631 12.4899 13.3333 12.6667 13.3333ZM19.3333 13.3333H23.3333C23.5101 13.3333 23.6797 13.2631 23.8047 13.1381C23.9298 13.013 24 12.8435 24 12.6667V8.66667C24 8.48986 23.9298 8.32029 23.8047 8.19526C23.6797 8.07024 23.5101 8 23.3333 8H19.3333C19.1565 8 18.987 8.07024 18.8619 8.19526C18.7369 8.32029 18.6667 8.48986 18.6667 8.66667V12.6667C18.6667 12.8435 18.7369 13.013 18.8619 13.1381C18.987 13.2631 19.1565 13.3333 19.3333 13.3333ZM12.6667 20H16.6667C16.8435 20 17.013 19.9298 17.1381 19.8047C17.2631 19.6797 17.3333 19.5101 17.3333 19.3333V15.3333C17.3333 15.1565 17.2631 14.987 17.1381 14.8619C17.013 14.7369 16.8435 14.6667 16.6667 14.6667H12.6667C12.4899 14.6667 12.3203 14.7369 12.1953 14.8619C12.0702 14.987 12 15.1565 12 15.3333V19.3333C12 19.5101 12.0702 19.6797 12.1953 19.8047C12.3203 19.9298 12.4899 20 12.6667 20ZM21.3333 20C22.804 20 24 18.804 24 17.3333C24 15.8627 22.804 14.6667 21.3333 14.6667C19.8627 14.6667 18.6667 15.8627 18.6667 17.3333C18.6667 18.804 19.8627 20 21.3333 20Z" fill="white"/>
<defs>
<filter id="filter0_d_1033_36" x="0" y="0" width="36" height="44" filterUnits="userSpaceOnUse" color-interpolation-filters="sRGB">
<feFlood flood-opacity="0" result="BackgroundImageFix"/>
<feColorMatrix in="SourceAlpha" type="matrix" values="0 0 0 0 0 0 0 0 0 0 0 0 0 0 0 0 0 0 127 0" result="hardAlpha"/>
<feOffset dy="4"/>
<feGaussianBlur stdDeviation="2"/>
<feComposite in2="hardAlpha" operator="out"/>
<feColorMatrix type="matrix" values="0 0 0 0 0 0 0 0 0 0 0 0 0 0 0 0 0 0 0.25 0"/>
<feBlend mode="normal" in2="BackgroundImageFix" result="effect1_dropShadow_1033_36"/>
<feBlend mode="normal" in="SourceGraphic" in2="effect1_dropShadow_1033_36" result="shape"/>
</filter>
<linearGradient id="paint0_linear_1033_36" x1="4" y1="0" x2="32" y2="0" gradientUnits="userSpaceOnUse">
<stop stop-color="#2EA2FF"/>
<stop offset="1" stop-color="#048FFF"/>
</linearGradient>
</defs>
</svg>
