<svg width="48" height="48" viewBox="0 0 48 48" fill="none" xmlns="http://www.w3.org/2000/svg">
<g filter="url(#filter0_d_595_469)">
<path d="M24 4C16 4 10 10 10 18C10 27 24 40 24 40C24 40 38 27 38 18C38 10 32 4 24 4Z" fill="url(#paint0_linear_595_469)"/>
<path d="M24 4.5C31.7239 4.5 37.5 10.2761 37.5 18C37.5 20.1315 36.6669 22.5464 35.3701 25.001C34.0776 27.4474 32.3483 29.8889 30.6094 32.0625C28.8719 34.2344 27.1333 36.1287 25.8281 37.4805C25.176 38.1559 24.6326 38.6955 24.2529 39.0654C24.1586 39.1573 24.0732 39.2381 24 39.3086C23.9268 39.2381 23.8414 39.1573 23.7471 39.0654C23.3674 38.6955 22.824 38.1559 22.1719 37.4805C20.8667 36.1287 19.1281 34.2344 17.3906 32.0625C15.6517 29.8889 13.9224 27.4474 12.6299 25.001C11.3331 22.5464 10.5 20.1315 10.5 18C10.5 10.2761 16.2761 4.5 24 4.5Z" stroke="white"/>
</g>
<path d="M29.9999 12.6666H17.9999C17.8231 12.6666 17.6535 12.7369 17.5285 12.8619C17.4035 12.9869 17.3333 13.1565 17.3333 13.3333V22.6666C17.3333 23.0202 17.4737 23.3594 17.7238 23.6094C17.9738 23.8595 18.313 24 18.6666 24H29.3333C29.6869 24 30.026 23.8595 30.2761 23.6094C30.5261 23.3594 30.6666 23.0202 30.6666 22.6666V13.3333C30.6666 13.1565 30.5963 12.9869 30.4713 12.8619C30.3463 12.7369 30.1767 12.6666 29.9999 12.6666ZM23.9999 18.6666C21.7939 18.6666 19.9999 16.8726 19.9999 14.6666H21.3333C21.3333 16.1373 22.5293 17.3333 23.9999 17.3333C25.4706 17.3333 26.6666 16.1373 26.6666 14.6666H27.9999C27.9999 16.8726 26.2059 18.6666 23.9999 18.6666Z" fill="white"/>
<defs>
<filter id="filter0_d_595_469" x="6" y="4" width="36" height="44" filterUnits="userSpaceOnUse" color-interpolation-filters="sRGB">
<feFlood flood-opacity="0" result="BackgroundImageFix"/>
<feColorMatrix in="SourceAlpha" type="matrix" values="0 0 0 0 0 0 0 0 0 0 0 0 0 0 0 0 0 0 127 0" result="hardAlpha"/>
<feOffset dy="4"/>
<feGaussianBlur stdDeviation="2"/>
<feComposite in2="hardAlpha" operator="out"/>
<feColorMatrix type="matrix" values="0 0 0 0 0 0 0 0 0 0 0 0 0 0 0 0 0 0 0.25 0"/>
<feBlend mode="normal" in2="BackgroundImageFix" result="effect1_dropShadow_595_469"/>
<feBlend mode="normal" in="SourceGraphic" in2="effect1_dropShadow_595_469" result="shape"/>
</filter>
<linearGradient id="paint0_linear_595_469" x1="10" y1="4" x2="38" y2="4" gradientUnits="userSpaceOnUse">
<stop stop-color="#2EA2FF"/>
<stop offset="1" stop-color="#048FFF"/>
</linearGradient>
</defs>
</svg>
