<svg width="48" height="48" viewBox="0 0 48 48" fill="none" xmlns="http://www.w3.org/2000/svg">
<g filter="url(#filter0_d_595_479)">
<path d="M24 4C16 4 10 10 10 18C10 27 24 40 24 40C24 40 38 27 38 18C38 10 32 4 24 4Z" fill="url(#paint0_linear_595_479)"/>
<path d="M24 4.5C31.7239 4.5 37.5 10.2761 37.5 18C37.5 20.1315 36.6669 22.5464 35.3701 25.001C34.0776 27.4474 32.3483 29.8889 30.6094 32.0625C28.8719 34.2344 27.1333 36.1287 25.8281 37.4805C25.176 38.1559 24.6326 38.6955 24.2529 39.0654C24.1586 39.1573 24.0732 39.2381 24 39.3086C23.9268 39.2381 23.8414 39.1573 23.7471 39.0654C23.3674 38.6955 22.824 38.1559 22.1719 37.4805C20.8667 36.1287 19.1281 34.2344 17.3906 32.0625C15.6517 29.8889 13.9224 27.4474 12.6299 25.001C11.3331 22.5464 10.5 20.1315 10.5 18C10.5 10.2761 16.2761 4.5 24 4.5Z" stroke="white"/>
</g>
<path d="M29.0773 14.32L29.0866 14.3087L26.4199 12.1487L25.5799 13.1847L26.9579 14.3007C26.6161 14.5084 26.3446 14.8142 26.1789 15.1782C26.0132 15.5423 25.9608 15.9478 26.0286 16.342C26.1286 16.9413 26.5413 17.4593 27.0753 17.7493C27.6719 18.074 28.1953 18.044 28.6606 17.8787L28.6506 22C28.6514 22.1104 28.6247 22.2192 28.5728 22.3167C28.521 22.4142 28.4456 22.4972 28.3536 22.5582C28.2616 22.6192 28.1559 22.6563 28.0459 22.6662C27.936 22.676 27.8253 22.6583 27.7239 22.6147C27.6445 22.5807 27.5725 22.5316 27.5119 22.47C27.4503 22.4082 27.4014 22.335 27.3681 22.2543C27.3349 22.1737 27.3178 22.0872 27.3179 22L27.3333 20.6667C27.3339 20.4043 27.2826 20.1443 27.1823 19.9018C27.0819 19.6594 26.9345 19.4392 26.7486 19.254C26.5629 19.0679 26.3423 18.9202 26.0994 18.8194C25.8565 18.7186 25.5962 18.6667 25.3333 18.6667H24.6666V13.3333C24.6666 12.9797 24.5261 12.6406 24.2761 12.3905C24.026 12.1405 23.6869 12 23.3333 12H18.6666C18.313 12 17.9738 12.1405 17.7238 12.3905C17.4737 12.6406 17.3333 12.9797 17.3333 13.3333V22.6667C17.3333 23.0203 17.4737 23.3594 17.7238 23.6095C17.9738 23.8595 18.313 24 18.6666 24H23.3333C23.6869 24 24.026 23.8595 24.2761 23.6095C24.5261 23.3594 24.6666 23.0203 24.6666 22.6667V20H25.3333C25.4239 20 25.5113 20.018 25.5939 20.052C25.7526 20.1215 25.8791 20.2484 25.9479 20.4073C25.9825 20.4894 26.0002 20.5776 25.9999 20.6667L25.9839 22C25.9839 22.2707 26.0366 22.5327 26.1413 22.7787C26.2419 23.018 26.3866 23.232 26.5686 23.4127C26.7536 23.5997 26.9741 23.748 27.2171 23.8488C27.4601 23.9496 27.7208 24.001 27.9839 24C28.2546 24 28.5159 23.948 28.7626 23.8427C29.0013 23.7427 29.2159 23.598 29.3966 23.4153C29.5832 23.23 29.7312 23.0095 29.832 22.7665C29.9329 22.5236 29.9845 22.263 29.9839 22L29.9999 16C29.9993 15.6651 29.9144 15.3357 29.7532 15.0421C29.592 14.7486 29.3595 14.5003 29.0773 14.32ZM23.3333 15.3333H18.6666V13.3333H23.3333V15.3333ZM27.9999 16.6667C27.8231 16.6667 27.6535 16.5964 27.5285 16.4714C27.4035 16.3464 27.3333 16.1768 27.3333 16C27.3333 15.8232 27.4035 15.6536 27.5285 15.5286C27.6535 15.4036 27.8231 15.3333 27.9999 15.3333C28.1767 15.3333 28.3463 15.4036 28.4713 15.5286C28.5963 15.6536 28.6666 15.8232 28.6666 16C28.6666 16.1768 28.5963 16.3464 28.4713 16.4714C28.3463 16.5964 28.1767 16.6667 27.9999 16.6667Z" fill="white"/>
<defs>
<filter id="filter0_d_595_479" x="6" y="4" width="36" height="44" filterUnits="userSpaceOnUse" color-interpolation-filters="sRGB">
<feFlood flood-opacity="0" result="BackgroundImageFix"/>
<feColorMatrix in="SourceAlpha" type="matrix" values="0 0 0 0 0 0 0 0 0 0 0 0 0 0 0 0 0 0 127 0" result="hardAlpha"/>
<feOffset dy="4"/>
<feGaussianBlur stdDeviation="2"/>
<feComposite in2="hardAlpha" operator="out"/>
<feColorMatrix type="matrix" values="0 0 0 0 0 0 0 0 0 0 0 0 0 0 0 0 0 0 0.25 0"/>
<feBlend mode="normal" in2="BackgroundImageFix" result="effect1_dropShadow_595_479"/>
<feBlend mode="normal" in="SourceGraphic" in2="effect1_dropShadow_595_479" result="shape"/>
</filter>
<linearGradient id="paint0_linear_595_479" x1="10" y1="4" x2="38" y2="4" gradientUnits="userSpaceOnUse">
<stop stop-color="#2EA2FF"/>
<stop offset="1" stop-color="#048FFF"/>
</linearGradient>
</defs>
</svg>
