<svg width="36" height="44" viewBox="0 0 36 44" fill="none" xmlns="http://www.w3.org/2000/svg">
<g filter="url(#filter0_d_1033_45)">
<path d="M18 0C10 0 4 6 4 14C4 23 18 36 18 36C18 36 32 23 32 14C32 6 26 0 18 0Z" fill="url(#paint0_linear_1033_45)"/>
<path d="M18 0.5C25.7239 0.5 31.5 6.27614 31.5 14C31.5 16.1315 30.6669 18.5464 29.3701 21.001C28.0776 23.4474 26.3483 25.8889 24.6094 28.0625C22.8719 30.2344 21.1333 32.1287 19.8281 33.4805C19.176 34.1559 18.6326 34.6955 18.2529 35.0654C18.1586 35.1573 18.0732 35.2381 18 35.3086C17.9268 35.2381 17.8414 35.1573 17.7471 35.0654C17.3674 34.6955 16.824 34.1559 16.1719 33.4805C14.8667 32.1287 13.1281 30.2344 11.3906 28.0625C9.65171 25.8889 7.92237 23.4474 6.62988 21.001C5.33313 18.5464 4.5 16.1315 4.5 14C4.5 6.27614 10.2761 0.5 18 0.5Z" stroke="white"/>
</g>
<path d="M16.6667 10.3333C16.6667 9.04667 15.62 8 14.3333 8C13.0467 8 12 9.04667 12 10.3333C12 11.62 13.0467 12.6667 14.3333 12.6667C14.7089 12.6641 15.0781 12.5695 15.4087 12.3913L16.98 14.0767L15.4347 15.622C15.0974 15.4353 14.7188 15.336 14.3333 15.3333C13.0467 15.3333 12 16.38 12 17.6667C12 18.9533 13.0467 20 14.3333 20C15.62 20 16.6667 18.9533 16.6667 17.6667C16.6667 17.266 16.556 16.8947 16.3773 16.5653L17.89 15.0533L21.3333 18.7473C21.7083 19.1224 22.2169 19.3332 22.7473 19.3333H24.6667L16.2333 11.6787C16.504 11.2973 16.6667 10.8353 16.6667 10.3333ZM14.3333 11.3333C13.782 11.3333 13.3333 10.8847 13.3333 10.3333C13.3333 9.782 13.782 9.33333 14.3333 9.33333C14.8847 9.33333 15.3333 9.782 15.3333 10.3333C15.3333 10.8847 14.8847 11.3333 14.3333 11.3333ZM14.3333 18.6667C13.782 18.6667 13.3333 18.218 13.3333 17.6667C13.3333 17.1153 13.782 16.6667 14.3333 16.6667C14.8847 16.6667 15.3333 17.1153 15.3333 17.6667C15.3333 18.218 14.8847 18.6667 14.3333 18.6667Z" fill="white"/>
<path d="M21.3334 9.25263L18.8621 12.1953L19.8047 13.138L24.6667 8.66663H22.7474C22.217 8.66674 21.7084 8.87753 21.3334 9.25263Z" fill="white"/>
<defs>
<filter id="filter0_d_1033_45" x="0" y="0" width="36" height="44" filterUnits="userSpaceOnUse" color-interpolation-filters="sRGB">
<feFlood flood-opacity="0" result="BackgroundImageFix"/>
<feColorMatrix in="SourceAlpha" type="matrix" values="0 0 0 0 0 0 0 0 0 0 0 0 0 0 0 0 0 0 127 0" result="hardAlpha"/>
<feOffset dy="4"/>
<feGaussianBlur stdDeviation="2"/>
<feComposite in2="hardAlpha" operator="out"/>
<feColorMatrix type="matrix" values="0 0 0 0 0 0 0 0 0 0 0 0 0 0 0 0 0 0 0.25 0"/>
<feBlend mode="normal" in2="BackgroundImageFix" result="effect1_dropShadow_1033_45"/>
<feBlend mode="normal" in="SourceGraphic" in2="effect1_dropShadow_1033_45" result="shape"/>
</filter>
<linearGradient id="paint0_linear_1033_45" x1="4" y1="0" x2="32" y2="0" gradientUnits="userSpaceOnUse">
<stop stop-color="#2EA2FF"/>
<stop offset="1" stop-color="#048FFF"/>
</linearGradient>
</defs>
</svg>
