<svg width="48" height="48" viewBox="0 0 48 48" fill="none" xmlns="http://www.w3.org/2000/svg">
<g filter="url(#filter0_d_595_447)">
<path d="M24 4C16 4 10 10 10 18C10 27 24 40 24 40C24 40 38 27 38 18C38 10 32 4 24 4Z" fill="url(#paint0_linear_595_447)"/>
<path d="M24 4.5C31.7239 4.5 37.5 10.2761 37.5 18C37.5 20.1315 36.6669 22.5464 35.3701 25.001C34.0776 27.4474 32.3483 29.8889 30.6094 32.0625C28.8719 34.2344 27.1333 36.1287 25.8281 37.4805C25.176 38.1559 24.6326 38.6955 24.2529 39.0654C24.1586 39.1573 24.0732 39.2381 24 39.3086C23.9268 39.2381 23.8414 39.1573 23.7471 39.0654C23.3674 38.6955 22.824 38.1559 22.1719 37.4805C20.8667 36.1287 19.1281 34.2344 17.3906 32.0625C15.6517 29.8889 13.9224 27.4474 12.6299 25.001C11.3331 22.5464 10.5 20.1315 10.5 18C10.5 10.2761 16.2761 4.5 24 4.5Z" stroke="white"/>
</g>
<path d="M29.5479 14.954C29.4866 14.8654 29.4047 14.793 29.3093 14.7429C29.2138 14.6929 29.1077 14.6667 28.9999 14.6667H19.8886L19.1193 12.82C19.0184 12.5768 18.8476 12.3691 18.6285 12.2231C18.4094 12.0771 18.1519 11.9995 17.8886 12H16.3333V13.3333H17.8886L21.0513 20.9233C21.1019 21.0448 21.1874 21.1485 21.2969 21.2215C21.4064 21.2944 21.535 21.3333 21.6666 21.3333H26.9999C27.2779 21.3333 27.5266 21.1607 27.6246 20.9013L29.6246 15.568C29.6624 15.4671 29.6752 15.3585 29.6618 15.2516C29.6484 15.1446 29.6094 15.0425 29.5479 14.954Z" fill="white"/>
<path d="M22 24C22.5523 24 23 23.5523 23 23C23 22.4477 22.5523 22 22 22C21.4477 22 21 22.4477 21 23C21 23.5523 21.4477 24 22 24Z" fill="white"/>
<path d="M26.6667 24C27.219 24 27.6667 23.5523 27.6667 23C27.6667 22.4477 27.219 22 26.6667 22C26.1145 22 25.6667 22.4477 25.6667 23C25.6667 23.5523 26.1145 24 26.6667 24Z" fill="white"/>
<defs>
<filter id="filter0_d_595_447" x="6" y="4" width="36" height="44" filterUnits="userSpaceOnUse" color-interpolation-filters="sRGB">
<feFlood flood-opacity="0" result="BackgroundImageFix"/>
<feColorMatrix in="SourceAlpha" type="matrix" values="0 0 0 0 0 0 0 0 0 0 0 0 0 0 0 0 0 0 127 0" result="hardAlpha"/>
<feOffset dy="4"/>
<feGaussianBlur stdDeviation="2"/>
<feComposite in2="hardAlpha" operator="out"/>
<feColorMatrix type="matrix" values="0 0 0 0 0 0 0 0 0 0 0 0 0 0 0 0 0 0 0.25 0"/>
<feBlend mode="normal" in2="BackgroundImageFix" result="effect1_dropShadow_595_447"/>
<feBlend mode="normal" in="SourceGraphic" in2="effect1_dropShadow_595_447" result="shape"/>
</filter>
<linearGradient id="paint0_linear_595_447" x1="10" y1="4" x2="38" y2="4" gradientUnits="userSpaceOnUse">
<stop stop-color="#2EA2FF"/>
<stop offset="1" stop-color="#048FFF"/>
</linearGradient>
</defs>
</svg>
