<svg width="48" height="48" viewBox="0 0 48 48" fill="none" xmlns="http://www.w3.org/2000/svg">
<g filter="url(#filter0_d_595_427)">
<path d="M24 4C16 4 10 10 10 18C10 27 24 40 24 40C24 40 38 27 38 18C38 10 32 4 24 4Z" fill="url(#paint0_linear_595_427)"/>
<path d="M24 4.5C31.7239 4.5 37.5 10.2761 37.5 18C37.5 20.1315 36.6669 22.5464 35.3701 25.001C34.0776 27.4474 32.3483 29.8889 30.6094 32.0625C28.8719 34.2344 27.1333 36.1287 25.8281 37.4805C25.176 38.1559 24.6326 38.6955 24.2529 39.0654C24.1586 39.1573 24.0732 39.2381 24 39.3086C23.9268 39.2381 23.8414 39.1573 23.7471 39.0654C23.3674 38.6955 22.824 38.1559 22.1719 37.4805C20.8667 36.1287 19.1281 34.2344 17.3906 32.0625C15.6517 29.8889 13.9224 27.4474 12.6299 25.001C11.3331 22.5464 10.5 20.1315 10.5 18C10.5 10.2761 16.2761 4.5 24 4.5Z" stroke="white"/>
</g>
<path d="M29.9999 16.6667C29.9877 16.2585 29.871 15.8603 29.6609 15.5101C29.4508 15.1599 29.1543 14.8695 28.7999 14.6667C28.7149 14.086 28.4235 13.5553 27.979 13.1721C27.5345 12.7888 26.9668 12.5786 26.3799 12.58C26.1549 12.5796 25.9307 12.6088 25.7133 12.6667C25.2544 12.2286 24.6443 11.9841 24.0099 11.9841C23.3755 11.9841 22.7655 12.2286 22.3066 12.6667C22.0891 12.6088 21.865 12.5796 21.6399 12.58C21.0507 12.5754 20.4798 12.7842 20.0325 13.1677C19.5853 13.5512 19.2919 14.0837 19.2066 14.6667C18.8509 14.8687 18.5532 15.1587 18.3419 15.509C18.1306 15.8592 18.0128 16.2578 17.9999 16.6667C17.8231 16.6667 17.6535 16.7369 17.5285 16.8619C17.4035 16.987 17.3333 17.1565 17.3333 17.3333C17.3333 18.5036 17.6413 19.6531 18.2265 20.6666C18.8116 21.68 19.6531 22.5216 20.6666 23.1067V24C20.6666 24.1768 20.7368 24.3464 20.8618 24.4714C20.9869 24.5964 21.1564 24.6667 21.3333 24.6667H26.6666C26.8434 24.6667 27.013 24.5964 27.138 24.4714C27.263 24.3464 27.3333 24.1768 27.3333 24V23.1067C28.3467 22.5216 29.1883 21.68 29.7734 20.6666C30.3585 19.6531 30.6666 18.5036 30.6666 17.3333C30.6666 17.1565 30.5963 16.987 30.4713 16.8619C30.3463 16.7369 30.1767 16.6667 29.9999 16.6667ZM19.3333 16.6667C19.3502 16.456 19.4297 16.2553 19.5615 16.0902C19.6934 15.9251 19.8716 15.8031 20.0733 15.74L20.6266 15.5667L20.5199 15C20.5217 14.8564 20.5517 14.7146 20.6082 14.5826C20.6648 14.4506 20.7468 14.3311 20.8496 14.2308C20.9523 14.1305 21.0738 14.0514 21.2072 13.9981C21.3405 13.9448 21.483 13.9182 21.6266 13.92C21.8191 13.9189 22.009 13.9647 22.1799 14.0533L22.7199 14.3533L23.0533 13.84C23.1575 13.6846 23.2984 13.5573 23.4635 13.4693C23.6286 13.3812 23.8128 13.3352 23.9999 13.3352C24.187 13.3352 24.3713 13.3812 24.5364 13.4693C24.7014 13.5573 24.8423 13.6846 24.9466 13.84L25.2799 14.3533L25.8199 14.0533C25.9908 13.9647 26.1807 13.9189 26.3733 13.92C26.6616 13.9164 26.9398 14.0261 27.1481 14.2256C27.3563 14.4251 27.4779 14.6984 27.4866 14.9867L27.3799 15.5533L27.9266 15.74C28.1282 15.8031 28.3064 15.9251 28.4383 16.0902C28.5702 16.2553 28.6497 16.456 28.6666 16.6667H19.3333Z" fill="white"/>
<defs>
<filter id="filter0_d_595_427" x="6" y="4" width="36" height="44" filterUnits="userSpaceOnUse" color-interpolation-filters="sRGB">
<feFlood flood-opacity="0" result="BackgroundImageFix"/>
<feColorMatrix in="SourceAlpha" type="matrix" values="0 0 0 0 0 0 0 0 0 0 0 0 0 0 0 0 0 0 127 0" result="hardAlpha"/>
<feOffset dy="4"/>
<feGaussianBlur stdDeviation="2"/>
<feComposite in2="hardAlpha" operator="out"/>
<feColorMatrix type="matrix" values="0 0 0 0 0 0 0 0 0 0 0 0 0 0 0 0 0 0 0.25 0"/>
<feBlend mode="normal" in2="BackgroundImageFix" result="effect1_dropShadow_595_427"/>
<feBlend mode="normal" in="SourceGraphic" in2="effect1_dropShadow_595_427" result="shape"/>
</filter>
<linearGradient id="paint0_linear_595_427" x1="10" y1="4" x2="38" y2="4" gradientUnits="userSpaceOnUse">
<stop stop-color="#2EA2FF"/>
<stop offset="1" stop-color="#048FFF"/>
</linearGradient>
</defs>
</svg>
