<svg width="36" height="44" viewBox="0 0 36 44" fill="none" xmlns="http://www.w3.org/2000/svg">
<g filter="url(#filter0_d_1033_52)">
<path d="M18 0C10 0 4 6 4 14C4 23 18 36 18 36C18 36 32 23 32 14C32 6 26 0 18 0Z" fill="url(#paint0_linear_1033_52)"/>
<path d="M18 0.5C25.7239 0.5 31.5 6.27614 31.5 14C31.5 16.1315 30.6669 18.5464 29.3701 21.001C28.0776 23.4474 26.3483 25.8889 24.6094 28.0625C22.8719 30.2344 21.1333 32.1287 19.8281 33.4805C19.176 34.1559 18.6326 34.6955 18.2529 35.0654C18.1586 35.1573 18.0732 35.2381 18 35.3086C17.9268 35.2381 17.8414 35.1573 17.7471 35.0654C17.3674 34.6955 16.824 34.1559 16.1719 33.4805C14.8667 32.1287 13.1281 30.2344 11.3906 28.0625C9.65171 25.8889 7.92237 23.4474 6.62988 21.001C5.33313 18.5464 4.5 16.1315 4.5 14C4.5 6.27614 10.2761 0.5 18 0.5Z" stroke="white"/>
</g>
<path d="M24.6661 11.3334C24.6662 11.2124 24.6332 11.0937 24.5708 10.99L22.7648 7.98004C22.6458 7.78327 22.4782 7.62042 22.2781 7.50717C22.0779 7.39392 21.852 7.33406 21.6221 7.33337H14.3768C13.9114 7.33337 13.4734 7.58137 13.2341 7.98071L11.4281 10.99C11.3657 11.0937 11.3327 11.2124 11.3328 11.3334C11.3328 12.0034 11.5901 12.6094 11.9994 13.0787V19.3334C11.9994 19.5102 12.0697 19.6798 12.1947 19.8048C12.3197 19.9298 12.4893 20 12.6661 20H17.9994C18.1762 20 18.3458 19.9298 18.4708 19.8048C18.5959 19.6798 18.6661 19.5102 18.6661 19.3334V16H21.3328V19.3334C21.3328 19.5102 21.403 19.6798 21.528 19.8048C21.653 19.9298 21.8226 20 21.9994 20H23.3328C23.5096 20 23.6791 19.9298 23.8042 19.8048C23.9292 19.6798 23.9994 19.5102 23.9994 19.3334V13.0787C24.4088 12.6094 24.6661 12.0034 24.6661 11.3334ZM23.3221 11.5007C23.2811 11.8226 23.1242 12.1186 22.8807 12.3332C22.6373 12.5478 22.324 12.6664 21.9994 12.6667C21.2641 12.6667 20.6661 12.0687 20.6661 11.3334C20.6661 11.288 20.6494 11.248 20.6401 11.2054L20.6534 11.2027L20.1461 8.66671H21.6221L23.3221 11.5007ZM16.6708 11.3767L17.2121 8.66671H18.7861L19.3281 11.3767C19.3048 12.092 18.7194 12.6667 17.9994 12.6667C17.2794 12.6667 16.6941 12.092 16.6708 11.3767ZM14.3768 8.66671H15.8528L15.3461 11.2027L15.3594 11.2054C15.3494 11.248 15.3328 11.288 15.3328 11.3334C15.3328 12.0687 14.7348 12.6667 13.9994 12.6667C13.6749 12.6664 13.3616 12.5478 13.1181 12.3332C12.8747 12.1186 12.7178 11.8226 12.6768 11.5007L14.3768 8.66671ZM16.6661 16.6667H13.9994V14.6667H16.6661V16.6667Z" fill="white"/>
<defs>
<filter id="filter0_d_1033_52" x="0" y="0" width="36" height="44" filterUnits="userSpaceOnUse" color-interpolation-filters="sRGB">
<feFlood flood-opacity="0" result="BackgroundImageFix"/>
<feColorMatrix in="SourceAlpha" type="matrix" values="0 0 0 0 0 0 0 0 0 0 0 0 0 0 0 0 0 0 127 0" result="hardAlpha"/>
<feOffset dy="4"/>
<feGaussianBlur stdDeviation="2"/>
<feComposite in2="hardAlpha" operator="out"/>
<feColorMatrix type="matrix" values="0 0 0 0 0 0 0 0 0 0 0 0 0 0 0 0 0 0 0.25 0"/>
<feBlend mode="normal" in2="BackgroundImageFix" result="effect1_dropShadow_1033_52"/>
<feBlend mode="normal" in="SourceGraphic" in2="effect1_dropShadow_1033_52" result="shape"/>
</filter>
<linearGradient id="paint0_linear_1033_52" x1="4" y1="0" x2="32" y2="0" gradientUnits="userSpaceOnUse">
<stop stop-color="#2EA2FF"/>
<stop offset="1" stop-color="#048FFF"/>
</linearGradient>
</defs>
</svg>
